<svg width="20" height="20" viewBox="0 0 20 20" fill="none" xmlns="http://www.w3.org/2000/svg">
<g clip-path="url(#clip0_2207_7415)">
<path d="M1.66602 7.14073C1.66602 6.14391 2.068 5.53302 2.89987 5.07007L6.32424 3.16437C8.1186 2.1658 9.01577 1.6665 9.99935 1.6665C10.9829 1.6665 11.8801 2.1658 13.6744 3.16437L17.0988 5.07007C17.9307 5.53302 18.3327 6.14392 18.3327 7.14073C18.3327 7.41103 18.3327 7.54618 18.3032 7.65729C18.1481 8.24105 17.6191 8.33317 17.1083 8.33317H2.89042C2.37957 8.33317 1.85062 8.24104 1.69553 7.65729C1.66602 7.54618 1.66602 7.41103 1.66602 7.14073Z" stroke="#1D1D1D" stroke-width="1.5"/>
<path d="M9.99609 5.8335H10.0036" stroke="#1D1D1D" stroke-width="2" stroke-linecap="round" stroke-linejoin="round"/>
<path d="M3.33398 8.3335V15.4168M6.66732 8.3335V15.4168" stroke="#1D1D1D" stroke-width="1.5"/>
<path d="M13.334 8.3335V15.4168M16.6673 8.3335V15.4168" stroke="#1D1D1D" stroke-width="1.5"/>
<path d="M15.8327 15.4165H4.16602C2.78531 15.4165 1.66602 16.5358 1.66602 17.9165C1.66602 18.1466 1.85257 18.3332 2.08268 18.3332H17.916C18.1461 18.3332 18.3327 18.1466 18.3327 17.9165C18.3327 16.5358 17.2134 15.4165 15.8327 15.4165Z" stroke="#1D1D1D" stroke-width="1.5"/>
</g>
<defs>
<clipPath id="clip0_2207_7415">
<rect width="20" height="20" fill="white"/>
</clipPath>
</defs>
</svg>
