<svg width="20" height="20" viewBox="0 0 20 20" fill="none" xmlns="http://www.w3.org/2000/svg">
<path d="M1.66602 10.0002C1.66602 7.05226 1.66602 5.5783 2.54335 4.59425C2.68367 4.43685 2.83833 4.29129 3.00557 4.15922C4.05112 3.3335 5.6172 3.3335 8.74935 3.3335H11.2493C14.3815 3.3335 15.9476 3.3335 16.9931 4.15922C17.1603 4.29129 17.315 4.43685 17.4553 4.59425C18.3327 5.5783 18.3327 7.05226 18.3327 10.0002C18.3327 12.9481 18.3327 14.422 17.4553 15.4061C17.315 15.5635 17.1603 15.709 16.9931 15.8411C15.9476 16.6668 14.3815 16.6668 11.2493 16.6668H8.74935C5.6172 16.6668 4.05112 16.6668 3.00557 15.8411C2.83833 15.709 2.68367 15.5635 2.54335 15.4061C1.66602 14.422 1.66602 12.9481 1.66602 10.0002Z" stroke="#1D1D1D" stroke-width="1.5" stroke-linecap="round" stroke-linejoin="round"/>
<path d="M8.33398 13.3335H9.58398" stroke="#1D1D1D" stroke-width="1.5" stroke-miterlimit="10" stroke-linecap="round" stroke-linejoin="round"/>
<path d="M12.084 13.3335H15.0007" stroke="#1D1D1D" stroke-width="1.5" stroke-miterlimit="10" stroke-linecap="round" stroke-linejoin="round"/>
<path d="M1.66602 7.5H18.3327" stroke="#1D1D1D" stroke-width="1.5" stroke-linejoin="round"/>
</svg>
