<svg width="14" height="14" viewBox="0 0 14 14" fill="none" xmlns="http://www.w3.org/2000/svg">
<path d="M11.375 3.2085L11.0135 9.05647C10.9211 10.5506 10.875 11.2976 10.5005 11.8348C10.3153 12.1003 10.0769 12.3244 9.80041 12.4928C9.24122 12.8335 8.49275 12.8335 6.99574 12.8335C5.49682 12.8335 4.74734 12.8335 4.18778 12.4922C3.91113 12.3235 3.67267 12.099 3.48756 11.833C3.11318 11.295 3.06801 10.5469 2.97769 9.0507L2.625 3.2085" stroke="#7E7E7E" stroke-width="1.2" stroke-linecap="round"/>
<path d="M1.75 3.20817H12.25M9.36582 3.20817L8.96764 2.38668C8.7031 1.84099 8.5708 1.56814 8.34266 1.39798C8.29208 1.36023 8.23848 1.32665 8.18242 1.29758C7.92978 1.1665 7.62656 1.1665 7.02012 1.1665C6.39847 1.1665 6.08767 1.1665 5.83081 1.30307C5.77389 1.33334 5.71957 1.36828 5.66842 1.40752C5.43762 1.58458 5.3087 1.86741 5.05086 2.43307L4.69754 3.20817" stroke="#7E7E7E" stroke-width="1.2" stroke-linecap="round"/>
<path d="M5.54102 9.625V6.125" stroke="#7E7E7E" stroke-width="1.2" stroke-linecap="round"/>
<path d="M8.45898 9.625V6.125" stroke="#7E7E7E" stroke-width="1.2" stroke-linecap="round"/>
</svg>
